<svg xmlns="http://www.w3.org/2000/svg" viewBox="0 0 1418.52 2150"><g id="Layer_2" data-name="Layer 2"><g id="Layer_1-2" data-name="Layer 1"><path id="off-set_J" data-name="off-set J" d="M235.22,2150a787.43,787.43,0,0,1-87.76-5.24A561,561,0,0,1,0,2103c34.38,6.61,121.37,18.42,214.88-24.62,13.14-6.05,65.7-32.32,115.93-87.41,104.16-114.21,99.08-250.75,97.89-269V746.22A280.3,280.3,0,0,1,672.43,468.37V1723.29c0,151.38-46,264.67-136.58,336.73C442.31,2134.39,320.74,2150,235.22,2150Z"/><path id="off-set_r" data-name="off-set r" d="M745.78,143.69a419.76,419.76,0,0,0,51.49,3.15c75.75,0,151.31-20,218.53-57.95l1.32-.74,1.26-.86C1103.72,29.37,1183.41,0,1255.24,0c60.19,0,114.49,20.44,161.38,60.76l1.9,1.65c-3.31,0-6.67-.07-10.1-.07-251.06,0-403.72,132.9-418.84,364.63l-.08,1.19v977.77a280.78,280.78,0,0,1-243.72,278.29Z"/></g></g></svg>