<svg xmlns="http://www.w3.org/2000/svg" viewBox="0 0 672.74 1684.22"><g id="Layer_2" data-name="Layer 2"><g id="Layer_1-2" data-name="Layer 1"><path id="off-set_r" data-name="off-set r" d="M0,143.69a419.76,419.76,0,0,0,51.49,3.15c75.75,0,151.32-20,218.53-57.95l1.33-.74,1.25-.86C358,29.37,437.64,0,509.47,0,569.66,0,624,20.44,670.84,60.76c.64.55,1.28,1.1,1.9,1.65-3.3,0-6.67-.07-10.09-.07-251.06,0-403.73,132.9-418.84,364.63l-.08,1.19v977.77a278.9,278.9,0,0,1-82.12,198.39A278.67,278.67,0,0,1,0,1684.22Z"/></g></g></svg>